<mxfile host="65bd71144e">
    <diagram id="JiPeBnl8MNzj9gC05diy" name="Page-1">
        <mxGraphModel dx="2533" dy="1994" grid="1" gridSize="10" guides="1" tooltips="1" connect="1" arrows="1" fold="1" page="1" pageScale="1" pageWidth="827" pageHeight="1169" math="0" shadow="0">
            <root>
                <mxCell id="0"/>
                <mxCell id="1" parent="0"/>
                <mxCell id="60" value="" style="rounded=0;whiteSpace=wrap;html=1;fillColor=none;strokeWidth=2;" parent="1" vertex="1">
                    <mxGeometry x="5000" width="500" height="300" as="geometry"/>
                </mxCell>
                <mxCell id="42" value="" style="rounded=0;whiteSpace=wrap;html=1;fillColor=none;strokeWidth=2;" parent="1" vertex="1">
                    <mxGeometry x="4500" width="500" height="300" as="geometry"/>
                </mxCell>
                <mxCell id="18" value="" style="rounded=0;whiteSpace=wrap;html=1;fillColor=none;strokeWidth=2;" parent="1" vertex="1">
                    <mxGeometry x="4000" width="500" height="300" as="geometry"/>
                </mxCell>
                <mxCell id="17" value="" style="rounded=0;whiteSpace=wrap;html=1;fillColor=none;strokeWidth=2;" parent="1" vertex="1">
                    <mxGeometry x="3500" width="500" height="300" as="geometry"/>
                </mxCell>
                <mxCell id="16" value="" style="rounded=0;whiteSpace=wrap;html=1;fillColor=none;strokeWidth=2;" parent="1" vertex="1">
                    <mxGeometry x="3000" width="500" height="300" as="geometry"/>
                </mxCell>
                <mxCell id="10" value="" style="rounded=0;whiteSpace=wrap;html=1;fillColor=none;strokeWidth=2;" parent="1" vertex="1">
                    <mxGeometry x="2000" width="500" height="300" as="geometry"/>
                </mxCell>
                <mxCell id="5" value="" style="rounded=0;whiteSpace=wrap;html=1;fillColor=none;strokeWidth=2;" parent="1" vertex="1">
                    <mxGeometry x="1000" width="500" height="300" as="geometry"/>
                </mxCell>
                <mxCell id="3" value="" style="rounded=0;whiteSpace=wrap;html=1;fillColor=none;strokeWidth=2;" parent="1" vertex="1">
                    <mxGeometry width="500" height="300" as="geometry"/>
                </mxCell>
                <mxCell id="uBmhupHGeQe9Bv0V8wx_-3" value="" style="endArrow=none;html=1;strokeWidth=10;" parent="1" edge="1">
                    <mxGeometry width="50" height="50" relative="1" as="geometry">
                        <mxPoint y="100" as="sourcePoint"/>
                        <mxPoint x="500" y="100" as="targetPoint"/>
                    </mxGeometry>
                </mxCell>
                <mxCell id="uBmhupHGeQe9Bv0V8wx_-4" value="" style="endArrow=none;html=1;strokeWidth=10;" parent="1" edge="1">
                    <mxGeometry width="50" height="50" relative="1" as="geometry">
                        <mxPoint x="250" y="170" as="sourcePoint"/>
                        <mxPoint x="250" y="100" as="targetPoint"/>
                    </mxGeometry>
                </mxCell>
                <mxCell id="uBmhupHGeQe9Bv0V8wx_-5" value="" style="endArrow=none;html=1;strokeWidth=12;" parent="1" edge="1">
                    <mxGeometry width="50" height="50" relative="1" as="geometry">
                        <mxPoint x="180" y="170" as="sourcePoint"/>
                        <mxPoint x="320" y="170" as="targetPoint"/>
                    </mxGeometry>
                </mxCell>
                <mxCell id="uBmhupHGeQe9Bv0V8wx_-6" value="" style="endArrow=none;html=1;strokeWidth=12;" parent="1" edge="1">
                    <mxGeometry width="50" height="50" relative="1" as="geometry">
                        <mxPoint x="180" y="199" as="sourcePoint"/>
                        <mxPoint x="320" y="199" as="targetPoint"/>
                    </mxGeometry>
                </mxCell>
                <mxCell id="uBmhupHGeQe9Bv0V8wx_-7" value="" style="endArrow=none;html=1;strokeWidth=10;" parent="1" edge="1">
                    <mxGeometry width="50" height="50" relative="1" as="geometry">
                        <mxPoint x="249.5" y="260" as="sourcePoint"/>
                        <mxPoint x="249.5" y="200" as="targetPoint"/>
                    </mxGeometry>
                </mxCell>
                <mxCell id="uBmhupHGeQe9Bv0V8wx_-8" value="" style="endArrow=none;html=1;strokeWidth=10;" parent="1" edge="1">
                    <mxGeometry width="50" height="50" relative="1" as="geometry">
                        <mxPoint x="250" y="260" as="sourcePoint"/>
                        <mxPoint x="250" y="260" as="targetPoint"/>
                        <Array as="points">
                            <mxPoint x="290" y="260"/>
                            <mxPoint x="250" y="290"/>
                            <mxPoint x="210" y="260"/>
                        </Array>
                    </mxGeometry>
                </mxCell>
                <mxCell id="uBmhupHGeQe9Bv0V8wx_-11" value="" style="endArrow=none;html=1;strokeWidth=10;" parent="1" edge="1">
                    <mxGeometry width="50" height="50" relative="1" as="geometry">
                        <mxPoint x="500" y="100" as="sourcePoint"/>
                        <mxPoint x="730" y="100" as="targetPoint"/>
                    </mxGeometry>
                </mxCell>
                <mxCell id="uBmhupHGeQe9Bv0V8wx_-12" value="" style="endArrow=none;html=1;strokeWidth=12;" parent="1" edge="1">
                    <mxGeometry width="50" height="50" relative="1" as="geometry">
                        <mxPoint x="735" y="30" as="sourcePoint"/>
                        <mxPoint x="735" y="170" as="targetPoint"/>
                    </mxGeometry>
                </mxCell>
                <mxCell id="uBmhupHGeQe9Bv0V8wx_-15" value="" style="endArrow=none;html=1;strokeWidth=12;" parent="1" edge="1">
                    <mxGeometry width="50" height="50" relative="1" as="geometry">
                        <mxPoint x="765" y="30" as="sourcePoint"/>
                        <mxPoint x="765" y="170" as="targetPoint"/>
                    </mxGeometry>
                </mxCell>
                <mxCell id="uBmhupHGeQe9Bv0V8wx_-16" value="" style="endArrow=none;html=1;strokeWidth=10;" parent="1" edge="1">
                    <mxGeometry width="50" height="50" relative="1" as="geometry">
                        <mxPoint x="770" y="100" as="sourcePoint"/>
                        <mxPoint x="1000" y="100" as="targetPoint"/>
                    </mxGeometry>
                </mxCell>
                <mxCell id="uBmhupHGeQe9Bv0V8wx_-25" value="" style="endArrow=none;html=1;strokeWidth=10;" parent="1" edge="1">
                    <mxGeometry width="50" height="50" relative="1" as="geometry">
                        <mxPoint x="1000" y="100" as="sourcePoint"/>
                        <mxPoint x="1500" y="100" as="targetPoint"/>
                    </mxGeometry>
                </mxCell>
                <mxCell id="uBmhupHGeQe9Bv0V8wx_-26" value="" style="endArrow=none;html=1;strokeWidth=10;" parent="1" edge="1">
                    <mxGeometry width="50" height="50" relative="1" as="geometry">
                        <mxPoint x="1250" y="120" as="sourcePoint"/>
                        <mxPoint x="1250" y="100" as="targetPoint"/>
                    </mxGeometry>
                </mxCell>
                <mxCell id="uBmhupHGeQe9Bv0V8wx_-31" value="" style="endArrow=none;html=1;strokeWidth=10;curved=1;" parent="1" edge="1">
                    <mxGeometry width="50" height="50" relative="1" as="geometry">
                        <mxPoint x="1250" y="240" as="sourcePoint"/>
                        <mxPoint x="1250" y="200" as="targetPoint"/>
                        <Array as="points">
                            <mxPoint x="1200" y="220"/>
                        </Array>
                    </mxGeometry>
                </mxCell>
                <mxCell id="uBmhupHGeQe9Bv0V8wx_-32" value="" style="endArrow=none;html=1;strokeWidth=10;curved=1;" parent="1" edge="1">
                    <mxGeometry width="50" height="50" relative="1" as="geometry">
                        <mxPoint x="1250" y="200" as="sourcePoint"/>
                        <mxPoint x="1250" y="160" as="targetPoint"/>
                        <Array as="points">
                            <mxPoint x="1200" y="180"/>
                        </Array>
                    </mxGeometry>
                </mxCell>
                <mxCell id="uBmhupHGeQe9Bv0V8wx_-33" value="" style="endArrow=none;html=1;strokeWidth=10;curved=1;" parent="1" edge="1">
                    <mxGeometry width="50" height="50" relative="1" as="geometry">
                        <mxPoint x="1250" y="160" as="sourcePoint"/>
                        <mxPoint x="1250" y="120" as="targetPoint"/>
                        <Array as="points">
                            <mxPoint x="1200" y="140"/>
                        </Array>
                    </mxGeometry>
                </mxCell>
                <mxCell id="uBmhupHGeQe9Bv0V8wx_-35" value="" style="endArrow=none;html=1;strokeWidth=10;" parent="1" edge="1">
                    <mxGeometry width="50" height="50" relative="1" as="geometry">
                        <mxPoint x="1500" y="100" as="sourcePoint"/>
                        <mxPoint x="1690" y="100" as="targetPoint"/>
                    </mxGeometry>
                </mxCell>
                <mxCell id="uBmhupHGeQe9Bv0V8wx_-38" value="" style="endArrow=none;html=1;strokeWidth=10;" parent="1" edge="1">
                    <mxGeometry width="50" height="50" relative="1" as="geometry">
                        <mxPoint x="1810" y="100" as="sourcePoint"/>
                        <mxPoint x="2000" y="100" as="targetPoint"/>
                    </mxGeometry>
                </mxCell>
                <mxCell id="uBmhupHGeQe9Bv0V8wx_-42" value="" style="endArrow=none;html=1;strokeWidth=10;curved=1;" parent="1" edge="1">
                    <mxGeometry width="50" height="50" relative="1" as="geometry">
                        <mxPoint x="1690" y="100" as="sourcePoint"/>
                        <mxPoint x="1730" y="100" as="targetPoint"/>
                        <Array as="points">
                            <mxPoint x="1710" y="50"/>
                        </Array>
                    </mxGeometry>
                </mxCell>
                <mxCell id="uBmhupHGeQe9Bv0V8wx_-43" value="" style="endArrow=none;html=1;strokeWidth=10;curved=1;" parent="1" edge="1">
                    <mxGeometry width="50" height="50" relative="1" as="geometry">
                        <mxPoint x="1730" y="100" as="sourcePoint"/>
                        <mxPoint x="1770" y="100" as="targetPoint"/>
                        <Array as="points">
                            <mxPoint x="1750" y="50"/>
                        </Array>
                    </mxGeometry>
                </mxCell>
                <mxCell id="uBmhupHGeQe9Bv0V8wx_-44" value="" style="endArrow=none;html=1;strokeWidth=10;curved=1;" parent="1" edge="1">
                    <mxGeometry width="50" height="50" relative="1" as="geometry">
                        <mxPoint x="1770" y="100" as="sourcePoint"/>
                        <mxPoint x="1810" y="100" as="targetPoint"/>
                        <Array as="points">
                            <mxPoint x="1790" y="50"/>
                        </Array>
                    </mxGeometry>
                </mxCell>
                <mxCell id="uBmhupHGeQe9Bv0V8wx_-46" value="" style="endArrow=none;html=1;strokeWidth=10;" parent="1" edge="1">
                    <mxGeometry width="50" height="50" relative="1" as="geometry">
                        <mxPoint x="2000" y="100" as="sourcePoint"/>
                        <mxPoint x="2500" y="100" as="targetPoint"/>
                    </mxGeometry>
                </mxCell>
                <mxCell id="uBmhupHGeQe9Bv0V8wx_-47" value="" style="endArrow=none;html=1;strokeWidth=10;" parent="1" edge="1">
                    <mxGeometry width="50" height="50" relative="1" as="geometry">
                        <mxPoint x="2250" y="120" as="sourcePoint"/>
                        <mxPoint x="2250" y="100" as="targetPoint"/>
                    </mxGeometry>
                </mxCell>
                <mxCell id="uBmhupHGeQe9Bv0V8wx_-53" value="" style="endArrow=none;html=1;strokeWidth=10;" parent="1" edge="1">
                    <mxGeometry width="50" height="50" relative="1" as="geometry">
                        <mxPoint x="2280" y="130" as="sourcePoint"/>
                        <mxPoint x="2250" y="120" as="targetPoint"/>
                    </mxGeometry>
                </mxCell>
                <mxCell id="uBmhupHGeQe9Bv0V8wx_-54" value="" style="endArrow=none;html=1;strokeWidth=10;" parent="1" edge="1">
                    <mxGeometry width="50" height="50" relative="1" as="geometry">
                        <mxPoint x="2280" y="170" as="sourcePoint"/>
                        <mxPoint x="2220" y="149.9999999999999" as="targetPoint"/>
                    </mxGeometry>
                </mxCell>
                <mxCell id="uBmhupHGeQe9Bv0V8wx_-55" value="" style="endArrow=none;html=1;strokeWidth=10;" parent="1" edge="1">
                    <mxGeometry width="50" height="50" relative="1" as="geometry">
                        <mxPoint x="2280" y="210" as="sourcePoint"/>
                        <mxPoint x="2220" y="189.9999999999999" as="targetPoint"/>
                    </mxGeometry>
                </mxCell>
                <mxCell id="uBmhupHGeQe9Bv0V8wx_-56" value="" style="endArrow=none;html=1;strokeWidth=10;" parent="1" edge="1">
                    <mxGeometry width="50" height="50" relative="1" as="geometry">
                        <mxPoint x="2280" y="170" as="sourcePoint"/>
                        <mxPoint x="2220" y="190" as="targetPoint"/>
                    </mxGeometry>
                </mxCell>
                <mxCell id="uBmhupHGeQe9Bv0V8wx_-57" value="" style="endArrow=none;html=1;strokeWidth=10;" parent="1" edge="1">
                    <mxGeometry width="50" height="50" relative="1" as="geometry">
                        <mxPoint x="2280" y="129.9999999999999" as="sourcePoint"/>
                        <mxPoint x="2220" y="150" as="targetPoint"/>
                    </mxGeometry>
                </mxCell>
                <mxCell id="uBmhupHGeQe9Bv0V8wx_-59" value="" style="endArrow=none;html=1;strokeWidth=10;" parent="1" edge="1">
                    <mxGeometry width="50" height="50" relative="1" as="geometry">
                        <mxPoint x="2280" y="209.9999999999999" as="sourcePoint"/>
                        <mxPoint x="2220" y="230" as="targetPoint"/>
                    </mxGeometry>
                </mxCell>
                <mxCell id="uBmhupHGeQe9Bv0V8wx_-60" value="" style="endArrow=none;html=1;strokeWidth=10;" parent="1" edge="1">
                    <mxGeometry width="50" height="50" relative="1" as="geometry">
                        <mxPoint x="2250" y="239.9999999999999" as="sourcePoint"/>
                        <mxPoint x="2220" y="229.9999999999999" as="targetPoint"/>
                    </mxGeometry>
                </mxCell>
                <mxCell id="uBmhupHGeQe9Bv0V8wx_-63" value="" style="endArrow=none;html=1;strokeWidth=10;" parent="1" edge="1">
                    <mxGeometry width="50" height="50" relative="1" as="geometry">
                        <mxPoint x="2500" y="99.99999999999989" as="sourcePoint"/>
                        <mxPoint x="2690" y="99.99999999999989" as="targetPoint"/>
                    </mxGeometry>
                </mxCell>
                <mxCell id="uBmhupHGeQe9Bv0V8wx_-64" value="" style="endArrow=none;html=1;strokeWidth=10;" parent="1" edge="1">
                    <mxGeometry width="50" height="50" relative="1" as="geometry">
                        <mxPoint x="2810" y="99.99999999999989" as="sourcePoint"/>
                        <mxPoint x="3000" y="99.99999999999989" as="targetPoint"/>
                    </mxGeometry>
                </mxCell>
                <mxCell id="uBmhupHGeQe9Bv0V8wx_-68" value="" style="endArrow=none;html=1;strokeWidth=10;" parent="1" edge="1">
                    <mxGeometry width="50" height="50" relative="1" as="geometry">
                        <mxPoint x="2700" y="70" as="sourcePoint"/>
                        <mxPoint x="2690" y="99.99999999999989" as="targetPoint"/>
                    </mxGeometry>
                </mxCell>
                <mxCell id="uBmhupHGeQe9Bv0V8wx_-69" value="" style="endArrow=none;html=1;strokeWidth=10;" parent="1" edge="1">
                    <mxGeometry width="50" height="50" relative="1" as="geometry">
                        <mxPoint x="2700" y="69.99999999999989" as="sourcePoint"/>
                        <mxPoint x="2720" y="130" as="targetPoint"/>
                    </mxGeometry>
                </mxCell>
                <mxCell id="uBmhupHGeQe9Bv0V8wx_-70" value="" style="endArrow=none;html=1;strokeWidth=10;" parent="1" edge="1">
                    <mxGeometry width="50" height="50" relative="1" as="geometry">
                        <mxPoint x="2740" y="69.99999999999989" as="sourcePoint"/>
                        <mxPoint x="2760" y="130" as="targetPoint"/>
                    </mxGeometry>
                </mxCell>
                <mxCell id="uBmhupHGeQe9Bv0V8wx_-71" value="" style="endArrow=none;html=1;strokeWidth=10;" parent="1" edge="1">
                    <mxGeometry width="50" height="50" relative="1" as="geometry">
                        <mxPoint x="2780" y="69.99999999999989" as="sourcePoint"/>
                        <mxPoint x="2800" y="130" as="targetPoint"/>
                    </mxGeometry>
                </mxCell>
                <mxCell id="uBmhupHGeQe9Bv0V8wx_-72" value="" style="endArrow=none;html=1;strokeWidth=10;" parent="1" edge="1">
                    <mxGeometry width="50" height="50" relative="1" as="geometry">
                        <mxPoint x="2740" y="70" as="sourcePoint"/>
                        <mxPoint x="2720" y="129.9999999999999" as="targetPoint"/>
                    </mxGeometry>
                </mxCell>
                <mxCell id="uBmhupHGeQe9Bv0V8wx_-73" value="" style="endArrow=none;html=1;strokeWidth=10;" parent="1" edge="1">
                    <mxGeometry width="50" height="50" relative="1" as="geometry">
                        <mxPoint x="2780" y="69.99999999999989" as="sourcePoint"/>
                        <mxPoint x="2760" y="129.9999999999999" as="targetPoint"/>
                    </mxGeometry>
                </mxCell>
                <mxCell id="uBmhupHGeQe9Bv0V8wx_-74" value="" style="endArrow=none;html=1;strokeWidth=10;" parent="1" edge="1">
                    <mxGeometry width="50" height="50" relative="1" as="geometry">
                        <mxPoint x="2810" y="99.99999999999989" as="sourcePoint"/>
                        <mxPoint x="2800" y="129.9999999999999" as="targetPoint"/>
                    </mxGeometry>
                </mxCell>
                <mxCell id="uBmhupHGeQe9Bv0V8wx_-76" value="" style="endArrow=none;html=1;strokeWidth=10;entryX=0;entryY=0.5;entryDx=0;entryDy=0;" parent="1" target="uBmhupHGeQe9Bv0V8wx_-86" edge="1">
                    <mxGeometry width="50" height="50" relative="1" as="geometry">
                        <mxPoint x="3000" y="100" as="sourcePoint"/>
                        <mxPoint x="3190" y="100" as="targetPoint"/>
                    </mxGeometry>
                </mxCell>
                <mxCell id="uBmhupHGeQe9Bv0V8wx_-77" value="" style="endArrow=none;html=1;strokeWidth=10;exitX=1;exitY=0.5;exitDx=0;exitDy=0;" parent="1" source="uBmhupHGeQe9Bv0V8wx_-86" edge="1">
                    <mxGeometry width="50" height="50" relative="1" as="geometry">
                        <mxPoint x="3320" y="100" as="sourcePoint"/>
                        <mxPoint x="3500" y="100" as="targetPoint"/>
                    </mxGeometry>
                </mxCell>
                <mxCell id="uBmhupHGeQe9Bv0V8wx_-86" value="&lt;font style=&quot;font-size: 32px&quot;&gt;Zo&lt;/font&gt;" style="rounded=0;whiteSpace=wrap;html=1;glass=0;strokeColor=#000000;fillColor=none;strokeWidth=10;" parent="1" vertex="1">
                    <mxGeometry x="3160" y="40" width="180" height="120" as="geometry"/>
                </mxCell>
                <mxCell id="uBmhupHGeQe9Bv0V8wx_-92" value="" style="endArrow=none;html=1;strokeWidth=10;" parent="1" edge="1">
                    <mxGeometry width="50" height="50" relative="1" as="geometry">
                        <mxPoint x="3500" y="100" as="sourcePoint"/>
                        <mxPoint x="4000" y="100" as="targetPoint"/>
                    </mxGeometry>
                </mxCell>
                <mxCell id="uBmhupHGeQe9Bv0V8wx_-93" value="" style="endArrow=none;html=1;strokeWidth=10;exitX=0.5;exitY=0;exitDx=0;exitDy=0;" parent="1" source="uBmhupHGeQe9Bv0V8wx_-103" edge="1">
                    <mxGeometry width="50" height="50" relative="1" as="geometry">
                        <mxPoint x="3750" y="130" as="sourcePoint"/>
                        <mxPoint x="3750" y="100" as="targetPoint"/>
                    </mxGeometry>
                </mxCell>
                <mxCell id="uBmhupHGeQe9Bv0V8wx_-103" value="" style="rounded=0;whiteSpace=wrap;html=1;glass=0;strokeColor=#000000;fillColor=none;strokeWidth=10;" parent="1" vertex="1">
                    <mxGeometry x="3700" y="130" width="100" height="100" as="geometry"/>
                </mxCell>
                <mxCell id="uBmhupHGeQe9Bv0V8wx_-105" value="" style="endArrow=none;html=1;strokeWidth=10;" parent="1" edge="1">
                    <mxGeometry width="50" height="50" relative="1" as="geometry">
                        <mxPoint x="4000" y="100" as="sourcePoint"/>
                        <mxPoint x="4500" y="100" as="targetPoint"/>
                    </mxGeometry>
                </mxCell>
                <mxCell id="uBmhupHGeQe9Bv0V8wx_-106" value="" style="endArrow=none;html=1;strokeWidth=10;exitX=0.5;exitY=0;exitDx=0;exitDy=0;" parent="1" source="uBmhupHGeQe9Bv0V8wx_-109" edge="1">
                    <mxGeometry width="50" height="50" relative="1" as="geometry">
                        <mxPoint x="4250" y="200" as="sourcePoint"/>
                        <mxPoint x="4250" y="100" as="targetPoint"/>
                    </mxGeometry>
                </mxCell>
                <mxCell id="uBmhupHGeQe9Bv0V8wx_-109" value="" style="rounded=0;whiteSpace=wrap;html=1;glass=0;strokeColor=#000000;fillColor=none;strokeWidth=10;" parent="1" vertex="1">
                    <mxGeometry x="4200" y="130" width="100" height="100" as="geometry"/>
                </mxCell>
                <mxCell id="uBmhupHGeQe9Bv0V8wx_-198" value="" style="endArrow=none;html=1;strokeWidth=10;" parent="1" edge="1">
                    <mxGeometry width="50" height="50" relative="1" as="geometry">
                        <mxPoint x="-180" y="100" as="sourcePoint"/>
                        <mxPoint y="100" as="targetPoint"/>
                    </mxGeometry>
                </mxCell>
                <mxCell id="uBmhupHGeQe9Bv0V8wx_-199" value="&lt;font style=&quot;font-size: 32px&quot;&gt;&lt;i&gt;BLACK BOX&lt;/i&gt;&lt;/font&gt;" style="rounded=0;whiteSpace=wrap;html=1;glass=0;strokeColor=#000000;strokeWidth=10;fillColor=#CCCCCC;" parent="1" vertex="1">
                    <mxGeometry x="-420" y="30" width="240" height="140" as="geometry"/>
                </mxCell>
                <mxCell id="uBmhupHGeQe9Bv0V8wx_-203" value="" style="endArrow=none;html=1;strokeWidth=1;" parent="1" edge="1">
                    <mxGeometry width="50" height="50" relative="1" as="geometry">
                        <mxPoint x="-500" y="410" as="sourcePoint"/>
                        <mxPoint x="-500" y="10" as="targetPoint"/>
                    </mxGeometry>
                </mxCell>
                <mxCell id="2" value="" style="rounded=0;whiteSpace=wrap;html=1;fillColor=none;strokeWidth=2;" parent="1" vertex="1">
                    <mxGeometry x="-500" width="500" height="300" as="geometry"/>
                </mxCell>
                <mxCell id="4" value="" style="rounded=0;whiteSpace=wrap;html=1;fillColor=none;strokeWidth=2;" parent="1" vertex="1">
                    <mxGeometry x="500" width="500" height="300" as="geometry"/>
                </mxCell>
                <mxCell id="6" value="" style="endArrow=none;html=1;strokeWidth=10;" parent="1" edge="1">
                    <mxGeometry width="50" height="50" relative="1" as="geometry">
                        <mxPoint x="1250" y="260" as="sourcePoint"/>
                        <mxPoint x="1250" y="260" as="targetPoint"/>
                        <Array as="points">
                            <mxPoint x="1290" y="260"/>
                            <mxPoint x="1250" y="290"/>
                            <mxPoint x="1210" y="260"/>
                        </Array>
                    </mxGeometry>
                </mxCell>
                <mxCell id="7" value="" style="endArrow=none;html=1;strokeWidth=10;" parent="1" edge="1">
                    <mxGeometry width="50" height="50" relative="1" as="geometry">
                        <mxPoint x="1250" y="260" as="sourcePoint"/>
                        <mxPoint x="1250" y="240" as="targetPoint"/>
                    </mxGeometry>
                </mxCell>
                <mxCell id="8" value="" style="rounded=0;whiteSpace=wrap;html=1;fillColor=none;strokeWidth=2;" parent="1" vertex="1">
                    <mxGeometry x="1500" width="500" height="300" as="geometry"/>
                </mxCell>
                <mxCell id="11" value="" style="endArrow=none;html=1;strokeWidth=10;" parent="1" edge="1">
                    <mxGeometry width="50" height="50" relative="1" as="geometry">
                        <mxPoint x="2250" y="260" as="sourcePoint"/>
                        <mxPoint x="2250" y="260" as="targetPoint"/>
                        <Array as="points">
                            <mxPoint x="2290" y="260"/>
                            <mxPoint x="2250" y="290"/>
                            <mxPoint x="2210" y="260"/>
                        </Array>
                    </mxGeometry>
                </mxCell>
                <mxCell id="14" value="" style="endArrow=none;html=1;strokeWidth=10;" parent="1" edge="1">
                    <mxGeometry width="50" height="50" relative="1" as="geometry">
                        <mxPoint x="2250" y="260" as="sourcePoint"/>
                        <mxPoint x="2250" y="240" as="targetPoint"/>
                    </mxGeometry>
                </mxCell>
                <mxCell id="15" value="" style="rounded=0;whiteSpace=wrap;html=1;fillColor=none;strokeWidth=2;" parent="1" vertex="1">
                    <mxGeometry x="2500" width="500" height="300" as="geometry"/>
                </mxCell>
                <mxCell id="19" value="" style="endArrow=none;html=1;strokeWidth=10;" parent="1" edge="1">
                    <mxGeometry width="50" height="50" relative="1" as="geometry">
                        <mxPoint x="4250" y="260" as="sourcePoint"/>
                        <mxPoint x="4250" y="260" as="targetPoint"/>
                        <Array as="points">
                            <mxPoint x="4290" y="260"/>
                            <mxPoint x="4250" y="290"/>
                            <mxPoint x="4210" y="260"/>
                        </Array>
                    </mxGeometry>
                </mxCell>
                <mxCell id="20" value="" style="endArrow=none;html=1;strokeWidth=10;entryX=0.5;entryY=1;entryDx=0;entryDy=0;" parent="1" target="uBmhupHGeQe9Bv0V8wx_-109" edge="1">
                    <mxGeometry width="50" height="50" relative="1" as="geometry">
                        <mxPoint x="4250" y="260" as="sourcePoint"/>
                        <mxPoint x="4250" y="240" as="targetPoint"/>
                    </mxGeometry>
                </mxCell>
                <mxCell id="22" value="" style="endArrow=none;html=1;strokeWidth=10;" parent="1" edge="1">
                    <mxGeometry width="50" height="50" relative="1" as="geometry">
                        <mxPoint x="4500" y="99.99999999999989" as="sourcePoint"/>
                        <mxPoint x="4690" y="99.99999999999989" as="targetPoint"/>
                    </mxGeometry>
                </mxCell>
                <mxCell id="23" value="" style="endArrow=none;html=1;strokeWidth=10;" parent="1" edge="1">
                    <mxGeometry width="50" height="50" relative="1" as="geometry">
                        <mxPoint x="4810" y="99.99999999999989" as="sourcePoint"/>
                        <mxPoint x="5000" y="99.99999999999989" as="targetPoint"/>
                    </mxGeometry>
                </mxCell>
                <mxCell id="24" value="" style="endArrow=none;html=1;strokeWidth=10;" parent="1" edge="1">
                    <mxGeometry width="50" height="50" relative="1" as="geometry">
                        <mxPoint x="4700" y="70" as="sourcePoint"/>
                        <mxPoint x="4690" y="99.99999999999989" as="targetPoint"/>
                    </mxGeometry>
                </mxCell>
                <mxCell id="25" value="" style="endArrow=none;html=1;strokeWidth=10;" parent="1" edge="1">
                    <mxGeometry width="50" height="50" relative="1" as="geometry">
                        <mxPoint x="4700" y="69.99999999999989" as="sourcePoint"/>
                        <mxPoint x="4720" y="130" as="targetPoint"/>
                    </mxGeometry>
                </mxCell>
                <mxCell id="26" value="" style="endArrow=none;html=1;strokeWidth=10;" parent="1" edge="1">
                    <mxGeometry width="50" height="50" relative="1" as="geometry">
                        <mxPoint x="4740" y="69.99999999999989" as="sourcePoint"/>
                        <mxPoint x="4760" y="130" as="targetPoint"/>
                    </mxGeometry>
                </mxCell>
                <mxCell id="27" value="" style="endArrow=none;html=1;strokeWidth=10;" parent="1" edge="1">
                    <mxGeometry width="50" height="50" relative="1" as="geometry">
                        <mxPoint x="4780" y="69.99999999999989" as="sourcePoint"/>
                        <mxPoint x="4800" y="130" as="targetPoint"/>
                    </mxGeometry>
                </mxCell>
                <mxCell id="28" value="" style="endArrow=none;html=1;strokeWidth=10;" parent="1" edge="1">
                    <mxGeometry width="50" height="50" relative="1" as="geometry">
                        <mxPoint x="4740" y="70" as="sourcePoint"/>
                        <mxPoint x="4720" y="129.9999999999999" as="targetPoint"/>
                    </mxGeometry>
                </mxCell>
                <mxCell id="29" value="" style="endArrow=none;html=1;strokeWidth=10;" parent="1" edge="1">
                    <mxGeometry width="50" height="50" relative="1" as="geometry">
                        <mxPoint x="4780" y="69.99999999999989" as="sourcePoint"/>
                        <mxPoint x="4760" y="129.9999999999999" as="targetPoint"/>
                    </mxGeometry>
                </mxCell>
                <mxCell id="30" value="" style="endArrow=none;html=1;strokeWidth=10;" parent="1" edge="1">
                    <mxGeometry width="50" height="50" relative="1" as="geometry">
                        <mxPoint x="4810" y="99.99999999999989" as="sourcePoint"/>
                        <mxPoint x="4800" y="129.9999999999999" as="targetPoint"/>
                    </mxGeometry>
                </mxCell>
                <mxCell id="31" value="" style="endArrow=none;html=1;strokeWidth=10;" parent="1" edge="1">
                    <mxGeometry width="50" height="50" relative="1" as="geometry">
                        <mxPoint x="4620" y="180" as="sourcePoint"/>
                        <mxPoint x="4690" y="180" as="targetPoint"/>
                    </mxGeometry>
                </mxCell>
                <mxCell id="32" value="" style="endArrow=none;html=1;strokeWidth=10;curved=1;" parent="1" edge="1">
                    <mxGeometry width="50" height="50" relative="1" as="geometry">
                        <mxPoint x="4690" y="180" as="sourcePoint"/>
                        <mxPoint x="4730" y="180" as="targetPoint"/>
                        <Array as="points">
                            <mxPoint x="4710" y="130"/>
                        </Array>
                    </mxGeometry>
                </mxCell>
                <mxCell id="33" value="" style="endArrow=none;html=1;strokeWidth=10;curved=1;" parent="1" edge="1">
                    <mxGeometry width="50" height="50" relative="1" as="geometry">
                        <mxPoint x="4730" y="180" as="sourcePoint"/>
                        <mxPoint x="4770" y="180" as="targetPoint"/>
                        <Array as="points">
                            <mxPoint x="4750" y="130"/>
                        </Array>
                    </mxGeometry>
                </mxCell>
                <mxCell id="34" value="" style="endArrow=none;html=1;strokeWidth=10;curved=1;" parent="1" edge="1">
                    <mxGeometry width="50" height="50" relative="1" as="geometry">
                        <mxPoint x="4770" y="180" as="sourcePoint"/>
                        <mxPoint x="4810" y="180" as="targetPoint"/>
                        <Array as="points">
                            <mxPoint x="4790" y="130"/>
                        </Array>
                    </mxGeometry>
                </mxCell>
                <mxCell id="35" value="" style="endArrow=none;html=1;strokeWidth=10;" parent="1" edge="1">
                    <mxGeometry width="50" height="50" relative="1" as="geometry">
                        <mxPoint x="4620" y="240" as="sourcePoint"/>
                        <mxPoint x="4730" y="240" as="targetPoint"/>
                    </mxGeometry>
                </mxCell>
                <mxCell id="36" value="" style="endArrow=none;html=1;strokeWidth=12;" parent="1" edge="1">
                    <mxGeometry width="50" height="50" relative="1" as="geometry">
                        <mxPoint x="4735" y="200" as="sourcePoint"/>
                        <mxPoint x="4735" y="280" as="targetPoint"/>
                    </mxGeometry>
                </mxCell>
                <mxCell id="37" value="" style="endArrow=none;html=1;strokeWidth=12;" parent="1" edge="1">
                    <mxGeometry width="50" height="50" relative="1" as="geometry">
                        <mxPoint x="4765" y="200" as="sourcePoint"/>
                        <mxPoint x="4765" y="280" as="targetPoint"/>
                    </mxGeometry>
                </mxCell>
                <mxCell id="38" value="" style="endArrow=none;html=1;strokeWidth=10;" parent="1" edge="1">
                    <mxGeometry width="50" height="50" relative="1" as="geometry">
                        <mxPoint x="4620" y="240" as="sourcePoint"/>
                        <mxPoint x="4620" y="100" as="targetPoint"/>
                    </mxGeometry>
                </mxCell>
                <mxCell id="39" value="" style="endArrow=none;html=1;strokeWidth=10;" parent="1" edge="1">
                    <mxGeometry width="50" height="50" relative="1" as="geometry">
                        <mxPoint x="4880" y="240" as="sourcePoint"/>
                        <mxPoint x="4880" y="100" as="targetPoint"/>
                    </mxGeometry>
                </mxCell>
                <mxCell id="40" value="" style="endArrow=none;html=1;strokeWidth=10;" parent="1" edge="1">
                    <mxGeometry width="50" height="50" relative="1" as="geometry">
                        <mxPoint x="4770" y="240" as="sourcePoint"/>
                        <mxPoint x="4880" y="240" as="targetPoint"/>
                    </mxGeometry>
                </mxCell>
                <mxCell id="41" value="" style="endArrow=none;html=1;strokeWidth=10;" parent="1" edge="1">
                    <mxGeometry width="50" height="50" relative="1" as="geometry">
                        <mxPoint x="4810" y="180" as="sourcePoint"/>
                        <mxPoint x="4880" y="180" as="targetPoint"/>
                    </mxGeometry>
                </mxCell>
                <mxCell id="43" value="" style="endArrow=none;html=1;strokeWidth=10;" parent="1" edge="1">
                    <mxGeometry width="50" height="50" relative="1" as="geometry">
                        <mxPoint x="5300" y="121" as="sourcePoint"/>
                        <mxPoint x="5300" y="101" as="targetPoint"/>
                    </mxGeometry>
                </mxCell>
                <mxCell id="44" value="" style="endArrow=none;html=1;strokeWidth=10;curved=1;" parent="1" edge="1">
                    <mxGeometry width="50" height="50" relative="1" as="geometry">
                        <mxPoint x="5300" y="241" as="sourcePoint"/>
                        <mxPoint x="5300" y="201" as="targetPoint"/>
                        <Array as="points">
                            <mxPoint x="5250" y="221"/>
                        </Array>
                    </mxGeometry>
                </mxCell>
                <mxCell id="45" value="" style="endArrow=none;html=1;strokeWidth=10;curved=1;" parent="1" edge="1">
                    <mxGeometry width="50" height="50" relative="1" as="geometry">
                        <mxPoint x="5300" y="201" as="sourcePoint"/>
                        <mxPoint x="5300" y="161" as="targetPoint"/>
                        <Array as="points">
                            <mxPoint x="5250" y="181"/>
                        </Array>
                    </mxGeometry>
                </mxCell>
                <mxCell id="46" value="" style="endArrow=none;html=1;strokeWidth=10;curved=1;" parent="1" edge="1">
                    <mxGeometry width="50" height="50" relative="1" as="geometry">
                        <mxPoint x="5300" y="161" as="sourcePoint"/>
                        <mxPoint x="5300" y="121" as="targetPoint"/>
                        <Array as="points">
                            <mxPoint x="5250" y="141"/>
                        </Array>
                    </mxGeometry>
                </mxCell>
                <mxCell id="47" value="" style="endArrow=none;html=1;strokeWidth=10;" parent="1" edge="1">
                    <mxGeometry width="50" height="50" relative="1" as="geometry">
                        <mxPoint x="5300" y="261" as="sourcePoint"/>
                        <mxPoint x="5300" y="261" as="targetPoint"/>
                        <Array as="points">
                            <mxPoint x="5340" y="261"/>
                            <mxPoint x="5300" y="291"/>
                            <mxPoint x="5260" y="261"/>
                        </Array>
                    </mxGeometry>
                </mxCell>
                <mxCell id="48" value="" style="endArrow=none;html=1;strokeWidth=10;" parent="1" edge="1">
                    <mxGeometry width="50" height="50" relative="1" as="geometry">
                        <mxPoint x="5300" y="261" as="sourcePoint"/>
                        <mxPoint x="5300" y="241" as="targetPoint"/>
                    </mxGeometry>
                </mxCell>
                <mxCell id="50" value="" style="endArrow=none;html=1;strokeWidth=10;" parent="1" edge="1">
                    <mxGeometry width="50" height="50" relative="1" as="geometry">
                        <mxPoint x="5000" y="100.49999999999989" as="sourcePoint"/>
                        <mxPoint x="5200" y="101" as="targetPoint"/>
                    </mxGeometry>
                </mxCell>
                <mxCell id="51" value="" style="endArrow=none;html=1;strokeWidth=10;curved=1;" parent="1" edge="1">
                    <mxGeometry width="50" height="50" relative="1" as="geometry">
                        <mxPoint x="5200" y="161" as="sourcePoint"/>
                        <mxPoint x="5200" y="121" as="targetPoint"/>
                        <Array as="points">
                            <mxPoint x="5250" y="141"/>
                        </Array>
                    </mxGeometry>
                </mxCell>
                <mxCell id="52" value="" style="endArrow=none;html=1;strokeWidth=10;curved=1;" parent="1" edge="1">
                    <mxGeometry width="50" height="50" relative="1" as="geometry">
                        <mxPoint x="5200" y="201" as="sourcePoint"/>
                        <mxPoint x="5200" y="161" as="targetPoint"/>
                        <Array as="points">
                            <mxPoint x="5250" y="181"/>
                        </Array>
                    </mxGeometry>
                </mxCell>
                <mxCell id="53" value="" style="endArrow=none;html=1;strokeWidth=10;curved=1;" parent="1" edge="1">
                    <mxGeometry width="50" height="50" relative="1" as="geometry">
                        <mxPoint x="5200" y="241" as="sourcePoint"/>
                        <mxPoint x="5200" y="201" as="targetPoint"/>
                        <Array as="points">
                            <mxPoint x="5250" y="221"/>
                        </Array>
                    </mxGeometry>
                </mxCell>
                <mxCell id="55" value="" style="endArrow=none;html=1;strokeWidth=10;" parent="1" edge="1">
                    <mxGeometry width="50" height="50" relative="1" as="geometry">
                        <mxPoint x="5200" y="261" as="sourcePoint"/>
                        <mxPoint x="5200" y="261" as="targetPoint"/>
                        <Array as="points">
                            <mxPoint x="5240" y="261"/>
                            <mxPoint x="5200" y="291"/>
                            <mxPoint x="5160" y="261"/>
                        </Array>
                    </mxGeometry>
                </mxCell>
                <mxCell id="56" value="" style="endArrow=none;html=1;strokeWidth=10;" parent="1" edge="1">
                    <mxGeometry width="50" height="50" relative="1" as="geometry">
                        <mxPoint x="5200" y="261" as="sourcePoint"/>
                        <mxPoint x="5200" y="241" as="targetPoint"/>
                    </mxGeometry>
                </mxCell>
                <mxCell id="57" value="" style="endArrow=none;html=1;strokeWidth=10;" parent="1" edge="1">
                    <mxGeometry width="50" height="50" relative="1" as="geometry">
                        <mxPoint x="5200" y="121" as="sourcePoint"/>
                        <mxPoint x="5200" y="101" as="targetPoint"/>
                    </mxGeometry>
                </mxCell>
                <mxCell id="58" value="" style="endArrow=none;html=1;strokeWidth=10;" parent="1" edge="1">
                    <mxGeometry width="50" height="50" relative="1" as="geometry">
                        <mxPoint x="5240" y="241" as="sourcePoint"/>
                        <mxPoint x="5240" y="121" as="targetPoint"/>
                    </mxGeometry>
                </mxCell>
                <mxCell id="59" value="" style="endArrow=none;html=1;strokeWidth=10;" parent="1" edge="1">
                    <mxGeometry width="50" height="50" relative="1" as="geometry">
                        <mxPoint x="5260" y="241" as="sourcePoint"/>
                        <mxPoint x="5260" y="121" as="targetPoint"/>
                    </mxGeometry>
                </mxCell>
                <mxCell id="61" value="" style="endArrow=none;html=1;strokeWidth=10;" parent="1" edge="1">
                    <mxGeometry width="50" height="50" relative="1" as="geometry">
                        <mxPoint x="5300" y="101" as="sourcePoint"/>
                        <mxPoint x="5500" y="100.49999999999989" as="targetPoint"/>
                    </mxGeometry>
                </mxCell>
                <mxCell id="62" value="" style="rounded=0;whiteSpace=wrap;html=1;fillColor=none;strokeWidth=2;" parent="1" vertex="1">
                    <mxGeometry x="5500" width="500" height="300" as="geometry"/>
                </mxCell>
                <mxCell id="63" value="" style="endArrow=none;html=1;strokeWidth=10;entryX=0;entryY=0.5;entryDx=0;entryDy=0;" parent="1" target="65" edge="1">
                    <mxGeometry width="50" height="50" relative="1" as="geometry">
                        <mxPoint x="5500" y="100" as="sourcePoint"/>
                        <mxPoint x="5690" y="100" as="targetPoint"/>
                    </mxGeometry>
                </mxCell>
                <mxCell id="64" value="" style="endArrow=none;html=1;strokeWidth=10;exitX=1;exitY=0.5;exitDx=0;exitDy=0;" parent="1" source="65" edge="1">
                    <mxGeometry width="50" height="50" relative="1" as="geometry">
                        <mxPoint x="5820" y="100" as="sourcePoint"/>
                        <mxPoint x="6000" y="100" as="targetPoint"/>
                    </mxGeometry>
                </mxCell>
                <mxCell id="65" value="&lt;font style=&quot;font-size: 32px&quot;&gt;Custom&lt;/font&gt;&lt;div&gt;&lt;font style=&quot;font-size: 32px&quot;&gt;Z vs f&lt;/font&gt;&lt;/div&gt;" style="rounded=0;whiteSpace=wrap;html=1;glass=0;strokeColor=#000000;fillColor=none;strokeWidth=10;" parent="1" vertex="1">
                    <mxGeometry x="5660" y="40" width="180" height="120" as="geometry"/>
                </mxCell>
                <mxCell id="67" value="" style="endArrow=none;html=1;strokeWidth=10;entryX=0;entryY=0.5;entryDx=0;entryDy=0;" edge="1" parent="1" target="69">
                    <mxGeometry width="50" height="50" relative="1" as="geometry">
                        <mxPoint x="6000" y="100" as="sourcePoint"/>
                        <mxPoint x="6190" y="100" as="targetPoint"/>
                    </mxGeometry>
                </mxCell>
                <mxCell id="68" value="" style="endArrow=none;html=1;strokeWidth=10;exitX=1;exitY=0.5;exitDx=0;exitDy=0;" edge="1" parent="1" source="69">
                    <mxGeometry width="50" height="50" relative="1" as="geometry">
                        <mxPoint x="6320" y="100" as="sourcePoint"/>
                        <mxPoint x="6500" y="100" as="targetPoint"/>
                    </mxGeometry>
                </mxCell>
                <mxCell id="69" value="&lt;span style=&quot;font-size: 32px;&quot;&gt;.s2p&lt;/span&gt;" style="rounded=0;whiteSpace=wrap;html=1;glass=0;strokeColor=#000000;fillColor=none;strokeWidth=10;" vertex="1" parent="1">
                    <mxGeometry x="6160" y="70" width="180" height="60" as="geometry"/>
                </mxCell>
                <mxCell id="72" value="" style="endArrow=none;html=1;strokeWidth=4;curved=1;startArrow=open;startFill=0;" edge="1" parent="1">
                    <mxGeometry width="50" height="50" relative="1" as="geometry">
                        <mxPoint x="6073" y="160" as="sourcePoint"/>
                        <mxPoint x="6073" y="120" as="targetPoint"/>
                        <Array as="points">
                            <mxPoint x="6203" y="140"/>
                        </Array>
                    </mxGeometry>
                </mxCell>
                <mxCell id="73" value="S11" style="text;strokeColor=none;align=center;fillColor=none;html=1;verticalAlign=middle;whiteSpace=wrap;rounded=0;" vertex="1" parent="1">
                    <mxGeometry x="6060" y="120" width="60" height="30" as="geometry"/>
                </mxCell>
                <mxCell id="76" value="" style="edgeStyle=none;orthogonalLoop=1;jettySize=auto;html=1;curved=1;endArrow=open;endFill=0;strokeWidth=4;" edge="1" parent="1">
                    <mxGeometry width="80" relative="1" as="geometry">
                        <mxPoint x="6170" y="50" as="sourcePoint"/>
                        <mxPoint x="6330" y="50" as="targetPoint"/>
                        <Array as="points"/>
                    </mxGeometry>
                </mxCell>
                <mxCell id="77" value="S21" style="text;strokeColor=none;align=center;fillColor=none;html=1;verticalAlign=middle;whiteSpace=wrap;rounded=0;" vertex="1" parent="1">
                    <mxGeometry x="6220" y="20" width="60" height="30" as="geometry"/>
                </mxCell>
                <mxCell id="78" value="" style="edgeStyle=none;orthogonalLoop=1;jettySize=auto;html=1;curved=1;endArrow=open;endFill=0;strokeWidth=4;" edge="1" parent="1">
                    <mxGeometry width="80" relative="1" as="geometry">
                        <mxPoint x="6330" y="150" as="sourcePoint"/>
                        <mxPoint x="6180" y="150" as="targetPoint"/>
                        <Array as="points"/>
                    </mxGeometry>
                </mxCell>
                <mxCell id="79" value="S12" style="text;strokeColor=none;align=center;fillColor=none;html=1;verticalAlign=middle;whiteSpace=wrap;rounded=0;" vertex="1" parent="1">
                    <mxGeometry x="6220" y="150" width="60" height="30" as="geometry"/>
                </mxCell>
                <mxCell id="80" value="" style="endArrow=none;html=1;strokeWidth=4;curved=1;startArrow=open;startFill=0;" edge="1" parent="1">
                    <mxGeometry width="50" height="50" relative="1" as="geometry">
                        <mxPoint x="6430" y="160" as="sourcePoint"/>
                        <mxPoint x="6430" y="120" as="targetPoint"/>
                        <Array as="points">
                            <mxPoint x="6300" y="140"/>
                        </Array>
                    </mxGeometry>
                </mxCell>
                <mxCell id="81" value="S22" style="text;strokeColor=none;align=center;fillColor=none;html=1;verticalAlign=middle;whiteSpace=wrap;rounded=0;" vertex="1" parent="1">
                    <mxGeometry x="6390" y="120" width="60" height="30" as="geometry"/>
                </mxCell>
                <mxCell id="82" value="" style="rounded=0;whiteSpace=wrap;html=1;fillColor=none;strokeWidth=2;" vertex="1" parent="1">
                    <mxGeometry x="6000" width="500" height="300" as="geometry"/>
                </mxCell>
            </root>
        </mxGraphModel>
    </diagram>
</mxfile>